<?xml version="1.0" encoding="utf-8"?>
<svg version="1.1" xmlns:xlink="http://www.w3.org/1999/xlink" width="34px" height="34px" viewBox="118 162  34 34" xmlns="http://www.w3.org/2000/svg">
  <path d="M 135 162  C 144.52 162  152 169.48  152 179  C 152 188.52  144.52 196  135 196  C 125.48 196  118 188.52  118 179  C 118 169.48  125.48 162  135 162  Z " fill-rule="nonzero" fill="#ffffff" stroke="none" />
  <path d="M 135 162.5  C 144.24 162.5  151.5 169.76  151.5 179  C 151.5 188.24  144.24 195.5  135 195.5  C 125.76 195.5  118.5 188.24  118.5 179  C 118.5 169.76  125.76 162.5  135 162.5  Z " stroke-width="1" stroke="#797979" fill="none" />
  <path d="M 135 187.5  C 130.24 187.5  126.5 183.76  126.5 179  C 126.5 174.24  130.24 170.5  135 170.5  C 139.76 170.5  143.5 174.24  143.5 179  C 143.5 183.76  139.76 187.5  135 187.5  " fill-rule="nonzero" fill="#797979" stroke="none" />
</svg>